<svg xmlns="http://www.w3.org/2000/svg" width="900" height="470" viewBox="0 0 900 470">
<rect width="100%" height="100%" fill="#ffffff"/>
<text x="24.0" y="32.0" font-family="Inter,Arial,sans-serif" font-size="20" font-weight="700" text-anchor="start" fill="#111827">Icon-Heavy DPI Quality Probe</text>
<text x="24.0" y="56.0" font-family="Inter,Arial,sans-serif" font-size="12" font-weight="400" text-anchor="start" fill="#4b5563">Real VLM runs on target technical manual reference pages 313, 320, and 435; higher proxy is better</text>
<rect x="78" y="86" width="788" height="314" fill="#f8fafc" stroke="#e5e7eb"/>
<line x1="78" y1="400.0" x2="866" y2="400.0" stroke="#e5e7eb"/>
<text x="68.0" y="404.0" font-family="Inter,Arial,sans-serif" font-size="11" font-weight="400" text-anchor="end" fill="#4b5563">0.0</text>
<line x1="78" y1="381.5" x2="866" y2="381.5" stroke="#e5e7eb"/>
<text x="68.0" y="385.5" font-family="Inter,Arial,sans-serif" font-size="11" font-weight="400" text-anchor="end" fill="#4b5563">0.5</text>
<line x1="78" y1="363.1" x2="866" y2="363.1" stroke="#e5e7eb"/>
<text x="68.0" y="367.1" font-family="Inter,Arial,sans-serif" font-size="11" font-weight="400" text-anchor="end" fill="#4b5563">1.0</text>
<line x1="78" y1="344.6" x2="866" y2="344.6" stroke="#e5e7eb"/>
<text x="68.0" y="348.6" font-family="Inter,Arial,sans-serif" font-size="11" font-weight="400" text-anchor="end" fill="#4b5563">1.5</text>
<line x1="78" y1="326.1" x2="866" y2="326.1" stroke="#e5e7eb"/>
<text x="68.0" y="330.1" font-family="Inter,Arial,sans-serif" font-size="11" font-weight="400" text-anchor="end" fill="#4b5563">2.0</text>
<line x1="78" y1="307.6" x2="866" y2="307.6" stroke="#e5e7eb"/>
<text x="68.0" y="311.6" font-family="Inter,Arial,sans-serif" font-size="11" font-weight="400" text-anchor="end" fill="#4b5563">2.5</text>
<line x1="78" y1="289.2" x2="866" y2="289.2" stroke="#e5e7eb"/>
<text x="68.0" y="293.2" font-family="Inter,Arial,sans-serif" font-size="11" font-weight="400" text-anchor="end" fill="#4b5563">3.0</text>
<line x1="78" y1="270.7" x2="866" y2="270.7" stroke="#e5e7eb"/>
<text x="68.0" y="274.7" font-family="Inter,Arial,sans-serif" font-size="11" font-weight="400" text-anchor="end" fill="#4b5563">3.5</text>
<line x1="78" y1="252.2" x2="866" y2="252.2" stroke="#e5e7eb"/>
<text x="68.0" y="256.2" font-family="Inter,Arial,sans-serif" font-size="11" font-weight="400" text-anchor="end" fill="#4b5563">4.0</text>
<line x1="78" y1="233.8" x2="866" y2="233.8" stroke="#e5e7eb"/>
<text x="68.0" y="237.8" font-family="Inter,Arial,sans-serif" font-size="11" font-weight="400" text-anchor="end" fill="#4b5563">4.5</text>
<line x1="78" y1="215.3" x2="866" y2="215.3" stroke="#e5e7eb"/>
<text x="68.0" y="219.3" font-family="Inter,Arial,sans-serif" font-size="11" font-weight="400" text-anchor="end" fill="#4b5563">5.0</text>
<line x1="78" y1="196.8" x2="866" y2="196.8" stroke="#e5e7eb"/>
<text x="68.0" y="200.8" font-family="Inter,Arial,sans-serif" font-size="11" font-weight="400" text-anchor="end" fill="#4b5563">5.5</text>
<line x1="78" y1="178.4" x2="866" y2="178.4" stroke="#e5e7eb"/>
<text x="68.0" y="182.4" font-family="Inter,Arial,sans-serif" font-size="11" font-weight="400" text-anchor="end" fill="#4b5563">6.0</text>
<line x1="78" y1="159.9" x2="866" y2="159.9" stroke="#e5e7eb"/>
<text x="68.0" y="163.9" font-family="Inter,Arial,sans-serif" font-size="11" font-weight="400" text-anchor="end" fill="#4b5563">6.5</text>
<line x1="78" y1="141.4" x2="866" y2="141.4" stroke="#e5e7eb"/>
<text x="68.0" y="145.4" font-family="Inter,Arial,sans-serif" font-size="11" font-weight="400" text-anchor="end" fill="#4b5563">7.0</text>
<line x1="78" y1="122.9" x2="866" y2="122.9" stroke="#e5e7eb"/>
<text x="68.0" y="126.9" font-family="Inter,Arial,sans-serif" font-size="11" font-weight="400" text-anchor="end" fill="#4b5563">7.5</text>
<line x1="78" y1="104.5" x2="866" y2="104.5" stroke="#e5e7eb"/>
<text x="68.0" y="108.5" font-family="Inter,Arial,sans-serif" font-size="11" font-weight="400" text-anchor="end" fill="#4b5563">8.0</text>
<line x1="78" y1="86.0" x2="866" y2="86.0" stroke="#e5e7eb"/>
<text x="68.0" y="90.0" font-family="Inter,Arial,sans-serif" font-size="11" font-weight="400" text-anchor="end" fill="#4b5563">8.5</text>
<line x1="78.0" y1="86" x2="78.0" y2="400" stroke="#eef2f7"/>
<text x="78.0" y="423.0" font-family="Inter,Arial,sans-serif" font-size="11" font-weight="400" text-anchor="middle" fill="#4b5563">200</text>
<line x1="472.0" y1="86" x2="472.0" y2="400" stroke="#eef2f7"/>
<text x="472.0" y="423.0" font-family="Inter,Arial,sans-serif" font-size="11" font-weight="400" text-anchor="middle" fill="#4b5563">250</text>
<line x1="866.0" y1="86" x2="866.0" y2="400" stroke="#eef2f7"/>
<text x="866.0" y="423.0" font-family="Inter,Arial,sans-serif" font-size="11" font-weight="400" text-anchor="middle" fill="#4b5563">300</text>
<line x1="78" y1="400" x2="866" y2="400" stroke="#111827" stroke-width="1.2"/>
<line x1="78" y1="86" x2="78" y2="400" stroke="#111827" stroke-width="1.2"/>
<text x="472.0" y="446.0" font-family="Inter,Arial,sans-serif" font-size="12" font-weight="600" text-anchor="middle" fill="#111827">rasterization DPI</text>
<text transform="translate(22 243.0) rotate(-90)" font-family="Inter,Arial,sans-serif" font-size="12" font-weight="600" text-anchor="middle" fill="#111827">quality proxy</text>
<polyline fill="none" stroke="#2563eb" stroke-width="3" stroke-linejoin="round" stroke-linecap="round" points="78.0,224.5 472.0,363.1 866.0,113.7"/>
<circle cx="78.0" cy="224.5" r="5.2" fill="#2563eb" stroke="#ffffff" stroke-width="2"/>
<circle cx="472.0" cy="363.1" r="5.2" fill="#2563eb" stroke="#ffffff" stroke-width="2"/>
<circle cx="866.0" cy="113.7" r="5.2" fill="#2563eb" stroke="#ffffff" stroke-width="2"/>
<line x1="866.0" y1="113.7" x2="718.0" y2="74.7" stroke="#dc2626" stroke-width="1.4" stroke-dasharray="3,3"/>
<rect x="711.0" y="53.7" width="135.6" height="24" rx="5" fill="#ffffff" stroke="#dc2626" stroke-width="1.2"/>
<text x="718.0" y="70.7" font-family="Inter,Arial,sans-serif" font-size="11" font-weight="700" text-anchor="start" fill="#dc2626">highest proxy @ 300</text>
<line x1="472.0" y1="363.1" x2="374.0" y2="417.1" stroke="#b45309" stroke-width="1.4" stroke-dasharray="3,3"/>
<rect x="367.0" y="396.1" width="142.0" height="24" rx="5" fill="#ffffff" stroke="#b45309" stroke-width="1.2"/>
<text x="374.0" y="413.1" font-family="Inter,Arial,sans-serif" font-size="11" font-weight="700" text-anchor="start" fill="#b45309">false positives hurt</text>
</svg>